{"title":"Brooklyns Finest [2010] BRRip MP4 FEEL-FREE","uid":5646879,"size":900995163,"categoryP":"video","categoryS":"movies","magnet":"?xt=urn:btih:289b0f70c602522ebee3863157f52f6df24cd4c2&amp;dn=Brooklyns+Finest+%5B2010%5D+BRRip+MP4+FEEL-FREE&amp;tr=udp%3A%2F%2Ftracker.openbittorrent.com%3A80&amp;tr=udp%3A%2F%2Fopen.demonii.com%3A1337&amp;tr=udp%3A%2F%2Ftracker.coppersurfer.tk%3A6969&amp;tr=udp%3A%2F%2Fexodus.desync.com%3A6969","seeders":0,"leechers":0,"uploader":"neon","files":-1,"time":1277318565,"description":"Brooklyns.Finest.2010.BRRip.MP4.FEEL-FREE\n\n &lt;a href=&quot;\nhttp://img249.imageshack.us/img249/4820/2res4tc.png&quot; rel=&quot;nofollow&quot; target=&quot;_NEW&quot;&gt;\nhttp://img249.imageshack.us/img249/4820/2res4tc.png&lt;/a&gt; &lt;a href=&quot;\nhttp://img295.imageshack.us/img295/9284/30t08ix.png&quot; rel=&quot;nofollow&quot; target=&quot;_NEW&quot;&gt;\nhttp://img295.imageshack.us/img295/9284/30t08ix.png&lt;/a&gt; &lt;a href=&quot;\nhttp://img84.imageshack.us/img84/7338/o879qq.png&quot; rel=&quot;nofollow&quot; target=&quot;_NEW&quot;&gt;\nhttp://img84.imageshack.us/img84/7338/o879qq.png&lt;/a&gt;\n &lt;a href=&quot;\nhttp://www.imdb.com/title/tt1210042/&quot; rel=&quot;nofollow&quot; target=&quot;_NEW&quot;&gt;\nhttp://www.imdb.com/title/tt1210042/&lt;/a&gt;\n\nBurned out veteran Eddie Dugan is just one week away from his pension and a fishing cabin in Connecticut. Narcotics officer Sal Procida has discovered there's no line he won't cross to provide a better life for his long-suffering wife and seven children. And Clarence &quot;Tango&quot; Butler has been undercover so long his loyalties have started to shift from his fellow police officers to his prison buddy Caz, one of Brooklyn's most infamous drug dealers. With personal and work pressures bearing down on them, each man faces daily tests of judgment and honor in one of the world's most difficult jobs. When NYPD's Operation Clean Up targets the notoriously drug-ridden BK housing project, all three officers find themselves swept away by the violence and corruption of Brooklyn's gritty 65th Precinct and its most treacherous criminals. During seven fateful days, Eddie, Sal and Tango find themselves hurtling inextricably toward the same fatal crime scene and a shattering collision with destiny.\n\nProduction Status: Released\nGenres: Action/Adventure, Drama, Thriller and Crime/Gangster\nRunning Time: 2 hrs. 5 min.\nRelease Date: March 5th, 2010 (wide)\nMPAA Rating: R for bloody violence throughout, strong sexuality, nudity, drug content and pervasive language.\nDistributors: Overture Films\nProduction Co.: Nu Image/Millennium Films, Thunder Road Pictures\nFinanciers: Langley Productions\nU.S. Box Office: $21,533,404\nFilming Locations: Brooklyn, New York USA\nProduced in: United States\n\n\nGenre:Action | Crime | Drama\nLanguage: English\nIMDb:http://www.imdb.com/title/tt1210042/\nSOURCE:Bluray.x264-CBGB\nSubtitles: ROMANA\nEncoder: Tony2\n..............................................\nGeneral\nComplete name : Brooklyns.Finest.2010.BRRip.MP4.FEEL-FREE\nFormat : MPEG-4\nFormat profile : Base Media\nCodec ID : isom\nFile size : 858 MiB\n..............................................\nVideo\nID : 1\nFormat : AVC\nFormat/Info : Advanced Video Codec\nFormat profile : &lt;a class=&quot;__cf_email__&quot; href=&quot;/cdn-cgi/l/email-protection&quot; data-cfemail=&quot;014c60686f414d302f32&quot;&gt;[email&amp;#160;protected]&lt;/a&gt;&lt;script cf-hash='f9e31' type=&quot;text/javascript&quot;&gt;\n/* &lt;![CDATA[ */!function(){try{var t=&quot;currentScript&quot;in document?document.currentScript:function(){for(var t=document.getElementsByTagName(&quot;script&quot;),e=t.length;e--;)if(t[e].getAttribute(&quot;cf-hash&quot;))return t[e]}();if(t&amp;&amp;t.previousSibling){var e,r,n,i,c=t.previousSibling,a=c.getAttribute(&quot;data-cfemail&quot;);if(a){for(e=&quot;&quot;,r=parseInt(a.substr(0,2),16),n=2;a.length-n;n+=2)i=parseInt(a.substr(n,2),16)^r,e+=String.fromCharCode(i);e=document.createTextNode(e),c.parentNode.replaceChild(e,c)}}}catch(u){}}();/* ]]&gt; */&lt;/script&gt;\nFormat settings, CABAC : Yes\nFormat settings, ReFrames : 1 frame\nCodec ID : avc1\nCodec ID/Info : Advanced Video Coding\nDuration : 2h 12mn\nBit rate mode : Variable\nBit rate : 772 Kbps\nWidth : 704 pixels\nHeight : 304 pixels\nDisplay aspect ratio : 2.35:1\nFrame rate mode : Constant\nFrame rate : 23.976 fps\nResolution : 24 bits\nColorimetry : 4:2:0\nScan type : Progressive\nBits/(Pixel*Frame) : 0.150\nStream size : 732 MiB (85%)\n.................................................\nAudio\nID : 2\nFormat : AAC\nFormat/Info : Advanced Audio Codec\nFormat version : Version 4\nFormat profile : LC\nFormat settings, SBR : No\nCodec ID : 40\nDuration : 2h 12mn\nBit rate mode : Variable\nBit rate : 128 Kbps\nChannel(s) : 2 channels\nChannel positions : L R\nSampling rate : 44.1 KHz\nResolution : 16 bits\nStream size : 121 MiB (14%)\n.................................................\n","torrent":{"xt":"urn:btih:289b0f70c602522ebee3863157f52f6df24cd4c2","amp;dn":"Brooklyns+Finest+%5B2010%5D+BRRip+MP4+FEEL-FREE","amp;tr":["udp%3A%2F%2Ftracker.openbittorrent.com%3A80","udp%3A%2F%2Fopen.demonii.com%3A1337","udp%3A%2F%2Ftracker.coppersurfer.tk%3A6969","udp%3A%2F%2Fexodus.desync.com%3A6969"],"infoHash":"289b0f70c602522ebee3863157f52f6df24cd4c2","infoHashBuffer":{"type":"Buffer","data":[40,155,15,112,198,2,82,46,190,227,134,49,87,245,47,109,242,76,212,194]},"announce":[],"urlList":[]}}